
<!DOCTYPE svg PUBLIC "-//W3C//DTD SVG 1.1//EN" "http://www.w3.org/Graphics/SVG/1.1/DTD/svg11.dtd"><svg viewBox="0 0 512 512" xmlns="http://www.w3.org/2000/svg" xmlns:xlink="http://www.w3.org/1999/xlink"><style>:root>svg{display:none}:root>svg:target{display:block}</style><svg viewBox="0 0 510 510" id="camera" xmlns="http://www.w3.org/2000/svg"><circle cx="255" cy="280.5" r="81.6"/><path d="M178.5 25.5l-45.9 51H51c-28.05 0-51 22.95-51 51v306c0 28.05 22.95 51 51 51h408c28.05 0 51-22.95 51-51v-306c0-28.05-22.95-51-51-51h-81.6l-45.9-51h-153zM255 408c-71.4 0-127.5-56.1-127.5-127.5S183.6 153 255 153s127.5 56.1 127.5 127.5S326.4 408 255 408z"/></svg><svg viewBox="0 0 510 510" id="like" xmlns="http://www.w3.org/2000/svg"><path d="M255 489.6l-35.7-35.7C86.7 336.6 0 257.55 0 160.65 0 81.6 61.2 20.4 140.25 20.4c43.35 0 86.7 20.4 114.75 53.55C283.05 40.8 326.4 20.4 369.75 20.4 448.8 20.4 510 81.6 510 160.65c0 96.9-86.7 175.95-219.3 293.25L255 489.6z"/></svg><svg viewBox="0 0 510 510" id="plus" xmlns="http://www.w3.org/2000/svg"><path d="M255 0C114.75 0 0 114.75 0 255s114.75 255 255 255 255-114.75 255-255S395.25 0 255 0zm127.5 280.5h-102v102h-51v-102h-102v-51h102v-102h51v102h102v51z"/></svg><svg viewBox="0 -75 512 511" id="send-mail-4" xmlns="http://www.w3.org/2000/svg"><path d="M512 20.535C512 9.027 502.36.265 491.965.504H96c-17.8 0-26.75 21.644-14.078 34.203l145.61 144.348L81.776 326.44C69.312 339.047 78.273 360.504 96 360.504h396c10.95 0 19.969-8.934 19.996-19.945 0-.02.004-.036.004-.055zm-40 271.3l-111.531-112.78L472 68.492zM144.586 40.505h298.828L294 188.62zm111.351 166.71l23.981 23.774c7.797 7.727 20.363 7.727 28.16 0l23.98-23.773 112.036 113.289H143.906zm0 0"/><path d="M45.332 124.504H96c11.047 0 20-8.953 20-20s-8.953-20-20-20H45.332c-11.047 0-20 8.953-20 20s8.957 20 20 20zm0 0M90.668 180.504c0-11.047-8.953-20-20-20H20c-11.047 0-20 8.953-20 20s8.953 20 20 20h50.668c11.043 0 20-8.953 20-20zm0 0M116 256.504c0-11.047-8.953-20-20-20H45.332c-11.047 0-20 8.953-20 20s8.953 20 20 20H96c11.047 0 20-8.953 20-20zm0 0"/></svg><svg viewBox="0 0 507.45 507.45" id="share" xmlns="http://www.w3.org/2000/svg"><path d="M408 178.5c-20.4 0-38.25 7.65-51 20.4L175.95 94.35c2.55-5.1 2.55-12.75 2.55-17.85C178.5 33.15 145.35 0 102 0S25.5 33.15 25.5 76.5 58.65 153 102 153c20.4 0 38.25-7.65 51-20.4l181.05 104.55c-2.55 5.1-2.55 12.75-2.55 17.85 0 5.1 0 12.75 2.55 17.85L153 379.95c-12.75-12.75-30.6-20.4-51-20.4-40.8 0-73.95 33.15-73.95 73.95S61.2 507.45 102 507.45s73.95-33.15 73.95-73.95c0-5.1 0-10.2-2.55-17.85l181.05-107.1c12.75 12.75 30.6 20.4 51 20.4 43.35 0 76.5-33.15 76.5-76.5S451.35 178.5 408 178.5z"/></svg></svg>
